<svg width="12" height="12" viewBox="0 0 12 12" fill="none" xmlns="http://www.w3.org/2000/svg">
<g clip-path="url(#clip0_2686_2702)">
<path d="M5.31497 2.15084C5.57924 1.55798 6.42076 1.55798 6.68503 2.15084L7.19439 3.29355C7.37605 3.70109 7.76117 3.9809 8.2049 4.02773L9.44908 4.15905C10.0946 4.22718 10.3546 5.0275 9.87245 5.46204L8.94307 6.29959C8.61162 6.5983 8.46451 7.05103 8.55709 7.48752L8.81668 8.71139C8.95135 9.34636 8.27056 9.84099 7.70828 9.51668L6.62453 8.89161C6.23802 8.66868 5.76198 8.66868 5.37547 8.89161L4.29172 9.51668C3.72944 9.84099 3.04865 9.34636 3.18332 8.71139L3.44291 7.48752C3.53549 7.05103 3.38838 6.5983 3.05693 6.29959L2.12755 5.46204C1.64536 5.0275 1.90541 4.22718 2.55092 4.15905L3.7951 4.02773C4.23883 3.9809 4.62395 3.70109 4.80561 3.29355L5.31497 2.15084Z" fill="#FECE00" stroke="#FFEE6D" stroke-width="0.5"/>
</g>
<defs>
<clipPath id="clip0_2686_2702">
<rect width="12" height="12" fill="white"/>
</clipPath>
</defs>
</svg>
